<svg xmlns="http://www.w3.org/2000/svg" version="1.1" xmlns:xlink="http://www.w3.org/1999/xlink" xmlns:svgjs="http://svgjs.dev/svgjs" width="1440" height="560" preserveAspectRatio="none" viewBox="0 0 1440 560"><g mask="url(&quot;#SvgjsMask1232&quot;)" fill="none"><rect width="1440" height="560" x="0" y="0" fill="rgba(239, 239, 239, 1)"></rect><path d="M361.2253940332288 197.6207178739014L297.11244138274856 276.79362079904587 376.285344307893 340.9065734495261 440.39829695837324 261.73367052438164z" fill="rgba(229, 229, 229, 1)" class="triangle-float1"></path><path d="M1065.55,11.468C1081.376,10.92,1096.086,4.065,1104.772,-9.175C1114.467,-23.952,1120.638,-43.231,1111.268,-58.216C1102.228,-72.672,1082.588,-72.549,1065.55,-71.9C1050.022,-71.308,1034.18,-67.831,1025.495,-54.946C1015.742,-40.477,1012.309,-21.227,1021.321,-6.285C1030.115,8.296,1048.533,12.057,1065.55,11.468" fill="rgba(229, 229, 229, 1)" class="triangle-float1"></path><path d="M155.691,700.881C194.817,700.367,220.435,664.826,239.952,630.912C259.403,597.111,277.814,556.783,257.915,523.244C238.255,490.109,194.219,488.9,155.691,488.895C117.151,488.89,73.521,490.335,53.423,523.219C32.769,557.012,47.75,598.852,67.508,633.176C87.323,667.599,115.975,701.402,155.691,700.881" fill="rgba(229, 229, 229, 1)" class="triangle-float3"></path><path d="M964.5593954897159-18.15049077937347L858.8625235421933 2.3948998646758213 879.4079141862427 108.09177181219839 985.1047861337652 87.5463811681491z" fill="rgba(229, 229, 229, 1)" class="triangle-float2"></path><path d="M1182.6098366119104 149.9794142601197L1300.8870467051854 113.81844221727356 1264.7260746623392-4.458767876001417 1146.4488645690642 31.702204166844737z" fill="rgba(229, 229, 229, 1)" class="triangle-float1"></path><path d="M179.13,235.887C216.389,237.357,250.455,212.05,266.115,178.21C279.847,148.536,265.19,115.997,247.263,88.653C231.469,64.562,207.935,45.885,179.13,45.529C149.733,45.165,123.155,61.73,108.014,86.93C92.377,112.956,90.195,144.385,103.276,171.784C118.563,203.803,143.677,234.488,179.13,235.887" fill="rgba(229, 229, 229, 1)" class="triangle-float3"></path></g><defs><mask id="SvgjsMask1232"><rect width="1440" height="560" fill="#ffffff"></rect></mask><style>
                @keyframes float1 {
                    0%{transform: translate(0, 0)}
                    50%{transform: translate(-10px, 0)}
                    100%{transform: translate(0, 0)}
                }

                .triangle-float1 {
                    animation: float1 5s infinite;
                }

                @keyframes float2 {
                    0%{transform: translate(0, 0)}
                    50%{transform: translate(-5px, -5px)}
                    100%{transform: translate(0, 0)}
                }

                .triangle-float2 {
                    animation: float2 4s infinite;
                }

                @keyframes float3 {
                    0%{transform: translate(0, 0)}
                    50%{transform: translate(0, -10px)}
                    100%{transform: translate(0, 0)}
                }

                .triangle-float3 {
                    animation: float3 6s infinite;
                }
            </style></defs></svg>